<svg 
    xmlns="http://www.w3.org/2000/svg" 
    xmlns:xlink="http://www.w3.org/1999/xlink" 
    version="1.1" 
    x="0px" 
    y="0px" 
    viewBox="0 0 100 100" 
    enable-background="new 0 0 100 100" 
    xml:space="preserve"
    fill= "#e5cb37"
>
    <g>
        <path 
            display="none" 
            fill="#000000" 
            d="M45.732,49.252c0,0-0.358,0.93-0.028,1.319c0.239-0.075,0.39-0.188,0.39-0.188   s-0.201-0.717,0-0.918C46.166,49.252,45.732,49.252,45.732,49.252z"/><path display="none" fill="#000000" d="M53.666,49.776l0.493,0.047c0,0,0.018-1.343-0.868-1.642   C53.405,48.333,53.683,48.25,53.666,49.776z"/><path d="M98.986,47.998c0.004-0.056,0.01-0.109,0.014-0.165c-0.006,0.011-0.013,0.021-0.02,0.031   C98.268,32.706,76.611,20.543,50,20.543c-27.061,0-48.999,12.578-48.999,28.094c0,1.331,0.166,2.64,0.478,3.921H1.478   c0,0,2.237,27.841,49.88,27.438c0,0,36.367-0.727,45.614-23.341C98.29,54.114,99,51.423,99,48.637   C99,48.424,98.994,48.211,98.986,47.998z M44.02,65.223l1.407-1.106c12.263,0.302,16.987-1.206,16.987-1.206s0,0,0.502,0.703   C54.371,66.327,44.02,65.223,44.02,65.223z M50,71.453c0,0.89-1.023,1.609-2.286,1.609s-2.287-0.72-2.287-1.609   c0-0.888,1.024-1.607,2.287-1.607S50,70.565,50,71.453z M71.259,67.131c0-0.555,0.967-1.005,2.16-1.005   c1.194,0,2.162,0.45,2.162,1.005c0,0.556-0.968,1.006-2.162,1.006C72.226,68.137,71.259,67.687,71.259,67.131z M80.005,62.156   c0-0.804,1.034-1.457,2.311-1.457c1.277,0,2.312,0.653,2.312,1.457c0,0.805-1.034,1.457-2.312,1.457   C81.039,63.613,80.005,62.961,80.005,62.156z M91.965,42.004c1.055,0,1.909,0.517,1.909,1.156c0,0.638-0.854,1.154-1.909,1.154   c-1.054,0-1.909-0.517-1.909-1.154C90.056,42.521,90.911,42.004,91.965,42.004z M83.823,31.853c0.667,0,1.206,0.202,1.206,0.451   c0,0.25-0.539,0.452-1.206,0.452c-0.666,0-1.206-0.202-1.206-0.452C82.617,32.055,83.157,31.853,83.823,31.853z M82.617,51.929   c-1.156,2.262-8.192,7.463-10.379,8.343c-2.639,0.504-0.979-0.955-0.979-0.955c4.146-2.11,7.538-6.407,7.74-7.388   C80.558,51.778,82.491,51.477,82.617,51.929z M38.404,28.92c0.263-0.719,0.942-0.639,1.646-0.587   c1.708,0.153,2.412,1.204,3.065,1.809c-0.2,1.104-0.804,0.301-1.882,0c0.881,0.25,1.178,0.854,0.776,1.205   c-0.302,0.251-0.452,0.604-1.006,0.296c-0.503-1.011-2.6-1.004-2.6-1.004s1.193,0.708,1.646,1.004c1.256,0.598,0.604,0.91,0,1.216   c-0.653,0.354-0.904,0.65-1.488,0c-0.835-1.203-2.684-0.958-3.059-0.758c1.484,0.353,1.731,0.905,2.336,1.256   c0.804,0.503,0,1.258,0,1.258s-0.554,0.301-1.307,0.202c-0.854-1.506-3.116-1.308-3.123-1.107c0.446,0.252,1.112,0.653,1.917,1.107   c0.954,0.454-0.302,1.456-1.056,1.535c-1.056-1.025-2.562-1.285-3.496-1.335c1.177,0.101,2.088,1.105,2.635,1.657   c-0.258,1.507-2.557,0.956-3.059,0.706c-0.302-0.752-2.212-0.705-2.212-0.705c-1.005-1.356,0.804-2.011,1.357-2.061   c0.101-0.804,1.607-1.508,2.262-1.619c0.804-1.42,1.759-1.347,2.612-1.353c0.302-1.413,1.76-1.451,2.312-1.552   C37.387,28.684,38.14,29.137,38.404,28.92z M41.257,51.488c-0.353,0.893-0.855,0.665-1.608,0.614   c-1.709-0.503,1.056-2.862,1.056-2.862c2.11-1.708,3.416-0.604,3.517,0c1.709-0.45,2.111,0.702,2.111,0.702   s-1.407,1.608-1.659,1.747c-0.652,0.994-1.657,1.017-2.562,0.868c-1.508-0.299,0.604-2.062,1.005-2.414   C42.765,49.691,41.558,50.846,41.257,51.488z M38.19,49.968c-0.603,1.634-1.156,1.481-1.859,1.331   c-1.357-0.554,0.854-2.662,0.854-2.662c1.271-1.882,2.413-1.761,3.116-1.761c1.257,0.05,1.106,1.508,0.353,1.761   C39.798,48.235,38.743,49.288,38.19,49.968z M33.969,47.281c0,0,0.402-0.506,0.854-0.956c0.17-0.268,0.349-0.443,0.53-0.584   c-1.076-0.269-2.105,0.651-2.49,1.036c-1.056,2.211-1.76,2.061-2.211,1.859c-1.256-1.057,1.406-3.668,1.859-4.12   c-1.106,0-2.463,1.658-2.613,2.262c-0.604,1.155-1.206,0.652-1.445,0.351c-0.34-1.809,1.747-3.065,2.551-3.518   c1.758-1.105,2.513,0.402,2.513,0.402c2.07-0.13,2.323,0.995,2.117,1.54c0.757-0.362,1.539,0.07,2.055,0.217   c1.356,0.653,0.552,1.407-0.504,1.762c-1.155,0.052-2.16,1.658-2.361,2.312c-0.452,0.754-0.804,0.652-1.96,0   C31.708,49.19,33.969,47.281,33.969,47.281z M43.115,38.586c0-2.081,3.01-3.77,6.723-3.77c3.711,0,6.721,1.688,6.721,3.77   s-3.01,3.77-6.721,3.77C46.125,42.355,43.115,40.667,43.115,38.586z M57.395,27.83c0.095,0.301-0.157,0.215-1.062,0.861   c-0.553,0.495-1.154,0.796-1.256,1.701c-0.403,0.2-0.401,0.251-1.206,0c0,0-1.156-1.105,1.155-2.562   C55.729,27.377,57.048,27.126,57.395,27.83z M72.717,43.207c0,0.5-0.302,1.006-0.854,1.635c-1.809-2.185-3.569-2.036-4.121-1.936   c0.955,0.352,0.401,0.051,2.11,1.056s1.255,1.613,1.255,1.613s-0.452,0.698-1.255,1.001c-1.531-2.275-3.545-1.862-4.209-1.646   c1.84,0.375,2.168,1.148,2.751,1.563c1.056,0.572,0.653,1.035,0,1.395c-0.705,0.56-0.804,0.395-1.307,0   c-1.206-1.551-2.361-1.39-2.361-1.39c-0.714-0.142-1.666-0.008-2.016,0.052c1.919,0.209,2.269,0.994,2.869,1.338   c1.106,0.51,0.805,1.242,0.805,1.242s-0.754,0.561-1.608,0.728c-1.007-1.491-2.865-1.726-3.368-1.529   c0.804,0.196,1.76,0.858,2.564,1.412c0.854,0.554-0.554,1.054-1.86,1.646c-0.051-1.471-4.522-2.257-4.522-2.257   c-0.805-0.711,1.106-1.099,1.558-1.242c-0.049-0.748,0.503-0.963,1.005-1.312c0.382-0.036,0.723-0.054,1.045-0.065   c-0.16-0.052-0.302-0.125-0.391-0.237c0.101-0.554,1.155-1.307,2.009-1.559c0.321-0.003,0.616,0.002,0.896,0.012   c-0.016-0.005-0.039-0.009-0.053-0.012c-0.44-2.16,2.322-1.858,2.172-2.359c-0.15-0.502,1.257-1.309,1.709-1.355   c-0.15-0.198-0.1-0.255,0.101-0.556c4.372-0.955,5.327,1.708,5.428,2.412c-0.151,0.503-2.311-1.407-3.216-1.458   C70.758,41.599,72.163,42.806,72.717,43.207z M66.184,33.438c-0.353,0.734-1.005,0.925-1.81,0.674   c-1.407-0.1,0.201-1.355,0.201-1.355s1.206-1.157,1.732-1.547c1.146-0.435,1.735,0.59,2.032,0.842   c1.604-0.302,1.411,1.105,0.704,1.444c-0.407-0.365-0.801,0.516-1.052,0.616c-0.25,0.353-1.356,0.402-1.859,0.503   c-0.352-0.453,1.105-1.81,1.206-2.206C67.188,32.211,66.585,32.956,66.184,33.438z M65.027,31.853   c-0.452-0.551-1.156,0.048-1.415,0.505c-0.41,1.062-1.147,1.251-1.801,1.08c-1.207-0.522,0.452-2.36,0.452-2.36   s0.552-0.592,0.955-0.924C65.431,28.866,65.529,31.397,65.027,31.853z M62.112,30.562c-0.352-0.583-1.105,0.132-1.457,0.635   c-0.502,1.157-1.156,1.256-1.759,1.106c-1.005-0.399,0.352-2.213,0.352-2.213s0,0,0.552-0.473c0.969-1.146,2.312-0.583,2.715-0.38   C63.317,29.49,62.565,30.896,62.112,30.562z M59.248,29.537c-0.202-0.451-1.056,0.102-1.407,0.654   c-0.452,0.854-0.652,0.955-1.282,0.854c-1.231-0.251-0.577-1.055-0.577-1.055s0.502-0.553,0.804-1.014   c0.804-1.014,2.161-0.896,2.765-0.644C60.554,28.787,59.8,29.537,59.248,29.537z M77.34,27.429c0.917,0,1.659,0.405,1.659,0.904   c0,0.5-0.742,0.905-1.659,0.905c-0.916,0-1.658-0.405-1.658-0.905C75.682,27.834,76.424,27.429,77.34,27.429z M60.152,23.208   c0.694,0,1.256,0.247,1.256,0.553s-0.562,0.553-1.256,0.553c-0.693,0-1.256-0.247-1.256-0.553S59.459,23.208,60.152,23.208z    M51.482,22.303c0.819,0,1.483,0.293,1.483,0.653s-0.664,0.654-1.483,0.654c-0.818,0-1.482-0.294-1.482-0.654   S50.664,22.303,51.482,22.303z M32.863,25.218c0.61,0,1.105,0.247,1.105,0.553s-0.495,0.553-1.105,0.553   c-0.611,0-1.105-0.247-1.105-0.553S32.252,25.218,32.863,25.218z M24.822,27.429c0.999,0,1.809,0.405,1.809,0.904   c0,0.5-0.81,0.905-1.809,0.905c-1,0-1.81-0.405-1.81-0.905C23.013,27.834,23.822,27.429,24.822,27.429z M19.359,45.263   c0.169,0.561,0.409,1.127,0.738,1.69c0.775,0.98,1.254,1.407,1.74,1.741c0.33,0.391,0.673,0.546,0.673,0.546l2.734,1.256   c2.146,1.038,4.929,2.413,4.929,2.413l2.796,1.397c2.216,1.136,4.489,2.312,5.32,2.772c2.413,1.407,5.429,1.911,6.434,1.911   c0.577,0.051,1.594,0.025,2.85-0.05c0.057-0.001,0.109,0,0.165-0.001c2.715,0.075,13.117-0.754,13.117-0.754   s5.503-1.433,6.936-3.92c1.206-0.829,11.208-9.272,11.208-9.272s1.967-1.298,1.633-3.75c2.715,3.73-1.633,7.086-1.633,7.086   s-5.529,5.735-8.946,7.982c-5.025,4.258-9.356,4.388-9.356,4.388s-9.338,1.104-15.28,1.104c-6.846-0.302-8.532-1.842-8.532-1.842   s-6.634-3.384-9.235-4.791c-5.517-2.011-9.359-6.635-9.359-6.635C17.715,46.406,18.444,45.494,19.359,45.263z M36.08,69.444   c1.165,0,2.11,0.449,2.11,1.004s-0.945,1.005-2.11,1.005c-1.166,0-2.111-0.45-2.111-1.005S34.914,69.444,36.08,69.444z    M21.605,57.583c-0.583-0.43,0.201-0.704,0.905-0.905c1.407-0.904,1.909,0.102,2.312,0.503c0.603,1.307,8.342,4.623,9.146,4.976   c2.312,0.553,1.407,0.955,1.105,1.457C28.742,63.11,21.605,57.583,21.605,57.583z M15.525,60.498c1.248,0,2.261,0.585,2.261,1.306   c0,0.723-1.013,1.308-2.261,1.308c-1.25,0-2.262-0.585-2.262-1.308C13.264,61.083,14.275,60.498,15.525,60.498z M12.007,37.38   c0.694,0,1.257,0.247,1.257,0.553s-0.562,0.553-1.257,0.553s-1.257-0.247-1.257-0.553S11.312,37.38,12.007,37.38z M12.358,56.678   c0,0.5-0.9,0.905-2.01,0.905c-1.111,0-2.011-0.405-2.011-0.905c0-0.499,0.899-0.904,2.011-0.904   C11.458,55.773,12.358,56.179,12.358,56.678z M8.79,42.004c1.083,0,1.96,0.517,1.96,1.156c0,0.638-0.877,1.154-1.96,1.154   c-1.082,0-1.959-0.517-1.959-1.154C6.831,42.521,7.708,42.004,8.79,42.004z"
        />
        <path 
            fill="#000000" 
            d="M10.75,37.933c0,0.306,0.562,0.553,1.257,0.553s1.257-0.247,1.257-0.553"
        />
        <path 
            d="M54.146,39.113l0.604-0.628h-0.83l-0.075-1.105l-0.879,0.553v-1.231l-0.93,0.679h-0.554v-1.056l-0.577,1.056h-0.604   l-0.521-1.056l-0.535,1.056l-0.527-0.302l-0.604-0.754l-0.401,1.056l-0.879-0.378l-0.302,0.931h-0.68l0.076,0.653   c0,0-0.603,0.075-0.503,0.527c0.177,1.96,3.217,2.035,4.411,2.035C53.745,41.225,54.146,39.113,54.146,39.113z"
        />
    </g>
    <!-- <text 
        x="0" 
        y="115" 
        fill="#000000" 
        font-size="5px" 
        font-weight="bold" 
        font-family="'Helvetica Neue', Helvetica, Arial-Unicode, Arial, Sans-serif"
    >
        Created by Veselin Andreev
    </text>
    <text 
        x="0" 
        y="120" 
        fill="#000000" 
        font-size="5px" 
        font-weight="bold" 
        font-family="'Helvetica Neue', Helvetica, Arial-Unicode, Arial, Sans-serif"
    >
        from the Noun Project
    </text> -->
</svg>